<svg xmlns="http://www.w3.org/2000/svg" viewBox="0 0 446.8 446.8">
  <path fill="#183409" d="M0 0h446.8v446.8H0z"/>
  <path d="M221.3 88.1c-1.7 0-3.6.1-5.6.4-10.6 1.3-11.5 4-11.5 4-3.4-.1-6.7-.3-9.8.7a7.4 7.4 0 00-.3.2 29 29 0 00-19 20 29 29 0 0020 35.5c4 1 7.1-.1 10.6-.8.3 1.3.7 4.6-1.6 12-3.3 10.7-8.4 19.9-13.4 29-18.7-30-38.4-48.8-59.3-55h-.2c-.1-.1-.2-.3-.4-.3a7.4 7.4 0 00-.3 0h-.3l-.7-.3h-.2a66 66 0 00-47 5.6c-1.2.6-2.2 1.3-3.2 2.1-11.9 1-22.6 8-25.8 19.9a29 29 0 0020.2 35.6 27 27 0 0021.7-4.4c7.8 2 14.1 7.9 19.8 18.7 6 11.5 9.7 26.4 11.2 34.2.3 1.9 1.4 3.6 2.3 5.4v2c-5.8 6.8-5.4 16.1-.6 23.4 0 .5-.3 1-.3 1.6a7.4 7.4 0 000 .1 79 79 0 00-.5 9.1 17.9 17.9 0 000 5.9 23.2 23.2 0 005.7 11.2 20.2 20.2 0 0012.1 6.9s10.4 1.7 22.2 4.2c5.8 1.2 12.4 2.8 17.8 4.4 5.4 1.5 10.4 3.3 10.3 3.3 2.5 1.2 5.3 2 8 2.1-.2 0 5.2.9 10.7 2.3a341.2 341.2 0 0117.5 5c11.5 3.9 21.4 7.6 21.4 7.6 4.4 1.7 9.4 1.7 14 0a23.2 23.2 0 0010.5-6.8c2.1-2.7 2.8-5 2.8-5a75.2 75.2 0 004.3-8.3l.6-1.5c7.6-4 12.6-11.7 11-20.4l1.1-2c1.7-1.1 3.5-2 4.7-3.5 5.1-6 15.6-17 26.5-23.9 10.3-6.5 19-8.6 26.7-6.5a26.8 26.8 0 0016.3 13.9 29 29 0 0035.2-20.8c3.2-12-2.7-23.6-12.8-30.3a20 20 0 00-2-4.3 66 66 0 00-36-26l-.2-.2a7.4 7.4 0 00-.9-.3h-.3l.5.2-1.1-.4.6.1h-.3a7.4 7.4 0 00-.5-.3c-18.8-4.7-41.9-.2-68.8 12.2-.3-8.2-.4-20.8-4.5-42.3-2.5-14-6.3-28.6-12.7-41.9-6.5-13.2-16.7-27-33.6-31.7a7.4 7.4 0 01.6 0h-.7c-.3 0-5.1-1.7-12.5-1.6zM200 110.2a9.7 9.8 0 012.5.3 9.7 9.8 0 016.9 12 9.7 9.8 0 01-12 6.8 9.7 9.8 0 01-6.8-12 9.7 9.8 0 019.4-7zm25.9 6l1.2.1c6 1.7 11.6 7.6 16.3 17.3 4.8 9.6 8.2 22.4 10.6 35a325.6 325.6 0 015 49v3.8a364.3 364.3 0 00-28.3 19.5l-3.1 2.4-5.6-1.7a7.4 7.4 0 00-.6-.3s-12.7-2.9-27.1-5.3a222.4 222.4 0 0036.1-67.8 49.5 49.5 0 002-28.4c-1.5-5-5.1-7.7-8.3-11l.4-1v-.2l.1-.1v-.1c.5-1.5 1-3.9 0-6.2-1.6-3.7-2.7-4.8-2.7-4.8 1.3 0 2.8-.3 4-.2zm-112.6 42.6c3 0 6.1.4 9.4 1.2a7.4 7.4 0 00.4 0c-.3 0 0 0 .3.2 14.6 4.1 33.4 20 53.3 57.6a274.3 274.3 0 01-8.9 12L165 233c-4.6-.2-9 .3-13.4.8-2-9.7-4.7-22.3-11.8-35.7a60.6 60.6 0 00-38-32.1c-.3-1.6-1-3-1.5-4.5 1.5-.6 2.8-1.3 4.3-1.7a36 36 0 018.7-1.1zm-35.2.6a9.7 9.7 0 012.5.3 9.7 9.7 0 016.9 12 9.7 9.7 0 01-12 6.8 9.7 9.7 0 01-6.8-11.9 9.7 9.7 0 019.4-7.2zm256.7 59.5c4.8 0 9 .4 12.7 1.4a7.4 7.4 0 00.2 0l.4.1c8 2.3 12.8 7.4 17.2 12.5-1 1-2.2 1.8-3 3a61.2 61.2 0 00-48.4 9.2c-12.6 8.1-21 17.5-27.7 24.9a122.1 122.1 0 00-29-15.9c24.8-17.7 45.8-28.7 61.3-32.7a73.2 73.2 0 0116.3-2.5zm47.2 21a9.7 9.7 0 012.5.4 9.7 9.7 0 016.9 12 9.7 9.7 0 01-12 6.8 9.7 9.7 0 01-6.8-12 9.7 9.7 0 019.4-7.1zm-217.2 18.8h2.8l5.1.4 6.5.8a379.2 379.2 0 0135.9 6.7h.3l.4.1 1.8.6c1.5.5 3.5 1 6.1 2l4.6 1.5.5.1 1.9.7 4.5 1.6 5.5 2A138.3 138.3 0 01269 290a7.4 7.4 0 00-1.1 4.2l.3 1.5a7.4 7.4 0 00-5.2 4.8s-1.4 4-3.2 8l-1.9 3.7c-3.3-1.2-8-3-17.3-6.1a164 164 0 00-33.8-8.3c-8.7-4.1-21.4-7.2-33.5-9.7-9.7-2-14.6-2.8-18-3.4 0-1.3 0-2.7.2-4.2.5-4.4 1.3-8.5 1.3-8.5a7.4 7.4 0 00-2.2-6.7l1-1.2a7.4 7.4 0 002-4.9c2.4-.2 4.5-.5 7.1-.5z" fill="#fff"/>
</svg>
